<svg xmlns="http://www.w3.org/2000/svg" viewBox="128 128 768 768">
  <path
    fill="currentColor"
    fill-rule="evenodd"
    clip-rule="evenodd"
    d="M320 320H436L512 472L588 320H704V704H588L512 552L436 704H320V320ZM666 333C680.359 333 692 344.641 692 359C692 373.359 680.359 385 666 385C651.641 385 640 373.359 640 359C640 344.641 651.641 333 666 333ZM358 639C372.359 639 384 650.641 384 665C384 679.359 372.359 691 358 691C343.641 691 332 679.359 332 665C332 650.641 343.641 639 358 639Z"
  />
</svg>
