<svg xmlns="http://www.w3.org/2000/svg" viewBox="0 0 190 40">
  <path
    fill="currentColor"
    fill-rule="evenodd"
    clip-rule="evenodd"
    d="M1.887 1.887H12.83L20 16.226L27.17 1.887H38.113V38.113H27.17L20 23.774L12.83 38.113H1.887V1.887ZM34.528 3.113C35.883 3.113 36.981 4.211 36.981 5.566C36.981 6.921 35.883 8.019 34.528 8.019C33.173 8.019 32.075 6.921 32.075 5.566C32.075 4.211 33.173 3.113 34.528 3.113ZM5.472 31.981C6.827 31.981 7.925 33.079 7.925 34.434C7.925 35.789 6.827 36.887 5.472 36.887C4.117 36.887 3.019 35.789 3.019 34.434C3.019 33.079 4.117 31.981 5.472 31.981Z"
  />
  <path
    fill="currentColor"
    transform="translate(50 2.5)"
    d="M0.6 0H7.45L19.55 23.75L31.55 0H38.4V35H32.95L32.9 8.25L21.4 31.35H17.65L6.05 8.25V35H0.6V0ZM43.0715 0H49.0215L59.0215 17.3L68.8215 0H74.8215L59.4215 27.6H58.5715L43.0715 0ZM56.1215 20.25H61.9715V35H56.1215V20.25ZM79.4574 0H86.3074L98.4074 23.75L110.407 0H117.257V35H111.807L111.757 8.25L100.257 31.35H96.5074L84.9074 8.25V35H79.4574V0ZM126.479 0H132.379V35H126.479V0Z"
  />
</svg>
